# xmcd
#
# Track frame offsets: 
#        150
#        20705
#        40812
#        61730
#        88020
#        105087
#        125735
#        140307
#        165195
#        185525
#        212260
#
# Disc length: 2972 seconds
#
# Revision: 3
# Processed by: cddbd v1.5.2PL0 Copyright (c) Steve Scherf et al.
# Submitted via: ExactAudioCopy v1.5
#
DISCID=840b9a0b
DTITLE=Aldrich, Doug - Electrovision [Japan]
DYEAR=1997
DGENRE=Rock
TTITLE0=Super Fly Sumo
TTITLE1=Trash and The Fascination
TTITLE2=Midnight Sun
TTITLE3=Flav O Fraz
TTITLE4=Plazma
TTITLE5=Her Kingdom
TTITLE6=Three Minutes
TTITLE7=Wes Coast
TTITLE8=Mind Punk
TTITLE9=Sky Blue And Black
TTITLE10=Goodbye Kat Gut
EXTD=
EXTT0=
EXTT1=
EXTT2=
EXTT3=
EXTT4=
EXTT5=
EXTT6=
EXTT7=
EXTT8=
EXTT9=
EXTT10=
PLAYORDER=
